<?xml version='1.0' encoding='utf-8'?>
<!DOCTYPE svg PUBLIC '-//W3C//DTD SVG 1.1//EN' 'http://www.w3.org/Graphics/SVG/1.1/DTD/svg11.dtd'>
<svg version="1.1" xmlns="http://www.w3.org/2000/svg" viewBox="0 0 512 512" xmlns:xlink="http://www.w3.org/1999/xlink" enable-background="new 0 0 512 512">
  <g>
    <path d="m500.5,94.7h-102.8c6.4-8.6 10.2-19.4 
    10.2-31.2 0-32.3-27-52-52-52-13.5,0-27,6.2-36.4,15.6l-63.5,63.5-63.5-63.5c-9.4-10.4-22.9-15.6-36.4-15.6-25,0-52,19.8-52,52 
    0,11.8 3.8,22.6 10.2,31.2h-102.8v123.8h41.6v281.9h405.7v-281.9h41.6v-123.8zm-166.4-53c7.3-7.3 16.6-9.4 21.8-9.4 
    15.6,0 31.2,11.4 31.2,31.2 0,17.7-13.5,31.2-31.2,31.2h-74.8l53-53zm-209.1,21.8c0-19.8 15.6-31.2 31.2-31.2 5.2,0 
    13.5,2.1 21.8,9.4l53.1,53h-74.9c-17.7,0-31.2-13.5-31.2-31.2zm-92.6,134.2v-82.2h213.3v82.2h-213.3zm41.6,20.8h171.7v261.1h-171.7v-261.1zm364.2,261.2h-171.7v-261.2h171.7v261.2zm41.6-282h-213.3v-82.2h213.3v82.2z" fill="#705f48"/>
  </g>
</svg>
