<?xml version="1.0" encoding="iso-8859-1"?>
<!-- Generator: Adobe Illustrator 18.0.0, SVG Export Plug-In . SVG Version: 6.00 Build 0)  -->
<!DOCTYPE svg PUBLIC "-//W3C//DTD SVG 1.1//EN" "http://www.w3.org/Graphics/SVG/1.1/DTD/svg11.dtd">
<svg version="1.1" id="Capa_1" xmlns="http://www.w3.org/2000/svg" xmlns:xlink="http://www.w3.org/1999/xlink" x="0px" y="0px"
	 viewBox="0 0 252.802 252.802" style="enable-background:new 0 0 252.802 252.802;" xml:space="preserve">
<g>
	<path d="M228.556,98.882h-8.548c-2.806-49.199-43.719-88.364-93.607-88.364S35.599,49.683,32.793,98.882h-8.547
		C10.877,98.882,0,109.759,0,123.128v41.252c0,13.369,10.877,24.246,24.246,24.246h9.123c4.305,26.561,27.39,46.908,55.147,46.908
		h13.517c1.949,3.993,6.036,6.75,10.778,6.75h23c6.627,0,12-5.373,12-12v-7.5c0-6.627-5.373-12-12-12h-23
		c-4.742,0-8.829,2.757-10.778,6.75H88.516c-20.885,0-37.876-16.991-37.876-37.875c0-0.005-0.001-0.011-0.001-0.016
		s0.001-0.011,0.001-0.016v-75.347c0-41.775,33.986-75.761,75.761-75.761s75.761,33.986,75.761,75.761v75.347c0,4.971,4.029,9,9,9
		h17.395c13.369,0,24.246-10.877,24.246-24.246v-41.252C252.802,109.759,241.925,98.882,228.556,98.882z M32.64,170.626h-8.394
		c-3.444,0-6.246-2.802-6.246-6.246v-41.252c0-3.444,2.802-6.246,6.246-6.246h8.394V170.626z M234.802,164.38
		c0,3.444-2.802,6.246-6.246,6.246h-8.395v-53.744h8.395c3.444,0,6.246,2.802,6.246,6.246V164.38z" fill="#3f2402"/>
</g>
<g>
</g>
<g>
</g>
<g>
</g>
<g>
</g>
<g>
</g>
<g>
</g>
<g>
</g>
<g>
</g>
<g>
</g>
<g>
</g>
<g>
</g>
<g>
</g>
<g>
</g>
<g>
</g>
<g>
</g>
</svg>
