<?xml version="1.0" encoding="iso-8859-1"?>
<!-- Generator: Adobe Illustrator 19.0.0, SVG Export Plug-In . SVG Version: 6.00 Build 0)  -->
<svg version="1.1" id="Capa_1" xmlns="http://www.w3.org/2000/svg" xmlns:xlink="http://www.w3.org/1999/xlink" x="0px" y="0px"
	 viewBox="0 0 489.981 489.981" style="enable-background:new 0 0 489.981 489.981;" xml:space="preserve">
<path d="M485.216,371.495l-91.248-170.653c-3.614-6.751-3.008-15.049,1.538-21.138l72.091-96.536
	c5.635-7.545,8.461-16.937,7.952-26.448l-1.029-19.187c-0.649-22.256-24.42-47.685-56.11-33.355L370.82,28.901
	c-5.305,2.753-9.983,6.791-13.536,11.668l-80.668,110.781H73.727c-8.133,0-28.217,4.064-33.495,28.398
	c-5.656,26.078,17.956,38.16,22.83,39.825l131.982,43.8l-56.766,77.956c-2.876,3.961-7.035,6.511-11.698,7.193l-92.154,13.44
	c-30.745,6.442-36.664,34.065-33.773,48.103c2.446,11.875,9.387,22.058,19.794,27.78l86.06,47.339
	c20.033,10.948,38.013,0.693,45.282-6.598l138.449-138.769c5.967-5.992,15.624-6.786,22.405-1.823l116.181,85.123
	c15.706,11.51,38.955,8.69,51.626-6.236C491.105,404.332,493.02,386.092,485.216,371.495z M69.71,199.809
	c-1.993-0.682-11.272-5.862-9.138-16.001c2.078-9.869,11.074-11.607,13.154-11.607h187.706l-53.503,73.474L69.71,199.809z
	 M464.558,403.384c-5.824,6.848-16.235,8.171-23.408,2.912l-116.187-85.123c-14.881-10.899-36.429-9.179-49.488,3.92
	L137.026,463.863c-5.396,5.412-13.857,6.689-20.47,3.05l-86.06-47.334c-4.881-2.688-8.116-7.552-9.326-13.251
	c-1.704-8.025,3.912-21.533,16.266-23.734l92.153-13.44c10.116-1.476,19.427-7.147,25.551-15.547L374.145,52.843
	c1.664-2.286,3.834-4.164,6.282-5.437l47.594-24.726c12.865-7.033,25.077,4.745,25.677,15.969l1.029,19.188
	c0.249,4.643-1.116,9.209-3.839,12.854l-72.09,96.537c-9.368,12.538-10.63,29.592-3.217,43.449l91.247,170.654
	C470.631,388.443,469.72,397.306,464.558,403.384z" fill="#705f48"/>
<g>
</g>
<g>
</g>
<g>
</g>
<g>
</g>
<g>
</g>
<g>
</g>
<g>
</g>
<g>
</g>
<g>
</g>
<g>
</g>
<g>
</g>
<g>
</g>
<g>
</g>
<g>
</g>
<g>
</g>
</svg>
